<svg xmlns="http://www.w3.org/2000/svg" viewBox="0 0 700.47 475.91"><defs><style>.cls-1{fill:#de4661;}.cls-2{fill:#e04f69;}.cls-3{fill:#e05069;}.cls-4{fill:#e35f77;}.cls-5{fill:#df4c66;}.cls-6{fill:#e25e76;}.cls-7{fill:#e36178;}.cls-8{fill:#e25b73;}.cls-9{fill:#e1556e;}.cls-10{fill:#e25a72;}.cls-11{fill:#e3647b;}</style></defs><title>Easy Puzzle</title><g id="Layer_2" data-name="Layer 2"><g id="Layer_1-2" data-name="Layer 1"><path class="cls-1" d="M295.7,70.74c5.95,3.54,12,7,17.84,10.66,9.06,5.71,14.31,14.27,16.53,24.49.84,3.89,2.38,4.67,5.94,4.66,42.48-.09,85,0,127.43-.16,4.41,0,5.92.9,5.84,5.64-.22,12.18.29,24.38-5.95,35.51-10.07,18-25.3,28-46,28.29-26.82.4-53.64.17-80.46,0-3.83,0-5.18.88-5.07,4.93q.44,15.48,0,31c-.12,4.22,1.22,5.27,5.34,5.26,42-.15,84,0,125.93-.23,5.27,0,6.28,1.52,6.16,6.38-.26,10.65.06,21.23-4.21,31.4-7.73,18.37-26.88,31.57-46.85,31.62-26.82.08-53.64.17-80.46-.11-5-.05-6.28,1.46-5.91,6.15a66.5,66.5,0,0,1-.43,12.45,16.31,16.31,0,0,1-25.06,12.12c-15.17-9.49-30.07-19.39-45.26-28.84-7.81-4.87-15.25-9.95-20.56-17.73-6.64-9.72-9.14-20.54-9.15-32.05q-.06-103.95,0-207.89C231.44,14.21,245.49.44,266,.17c17.66-.23,35.31-.05,53-.05,48.31,0,96.62.07,144.92-.12,4.58,0,5.54,1.29,5.4,5.57-.3,9.79.46,19.66-3,29.12-7.85,21.61-27.5,35-51.68,35q-57.22.07-114.44,0h-4.34Zm-48-29v3.47q0,95.19,0,190.37a100.36,100.36,0,0,0,.72,13.44c1.45,10.68,6.1,19.35,15.65,25.26,15.32,9.49,30.36,19.43,45.61,29.05,1.56,1,3.08,3.5,5,2.3,1.45-.88.54-3.39.54-5.15q0-89.94,0-179.88c0-1.84,0-3.68-.15-5.5-.81-8.89-4.17-16.32-12.25-21-6.16-3.57-12.28-7.2-18.44-10.75C267.92,73.81,253.23,62.57,247.73,41.76Z"/><path class="cls-2" d="M330,391.05c-6.66,0-13.32-.18-20,.07-3.81.14-3.34-2.18-3.33-4.52s-.55-4.58,3.3-4.52c13.14.19,26.29-.14,39.43.15,10.81.24,16.17,6.56,15.94,17.92-.21,10.4-6,16.12-16.67,16.18-9.82.06-19.64.13-29.46-.05-3.11,0-4,1-3.91,4,.2,5.65-.14,11.32.13,17,.16,3.4-1.41,3.86-4.17,3.69-2.34-.15-4.7.4-4.63-3.34q.24-13.49,0-27c-.06-3.3,1.76-3.3,4.12-3.29q18.74.06,37.45,0c6.54,0,8.31-2,8.25-8.88-.06-5.83-1.72-7.39-8-7.42S336.13,391.05,330,391.05Z"/><path class="cls-3" d="M29,440.9c-8.32,0-16.65-.12-25,.06-2.93.06-4.13-.55-4-3.8.23-8.81.17-17.63,0-26.45,0-2.62.79-3.42,3.4-3.4,14.3.11,28.62.19,42.92,0,4.18-.06,3.79,2.22,4,5,.27,3.45-1.13,4.14-4.25,4.09-10.65-.16-21.3.08-31.95-.14-3.77-.07-5.24.84-5.2,4.92.11,10.94-.07,10.94,11,10.94,11.64,0,23.29.17,34.94-.1,3.71-.08,4,1.54,3.93,4.43-.06,2.71.07,4.68-3.82,4.54C46.32,440.68,37.66,440.9,29,440.9Z"/><path class="cls-3" d="M155.68,440.9c-6.82,0-13.65-.2-20.46.07-3.89.16-3.72-2-3.79-4.69s.4-4.26,3.75-4.21c12.48.17,25,.11,37.44.05,7.47,0,10.77-4.64,8.62-11.83-1.11-3.7-4.16-3.9-7.22-3.92-8.82-.05-17.64,0-26.46,0-6.53,0-11.62-2.67-14.41-8.77-.73-1.6-2.61-4.28-.3-5.06s6.1-2,7.7.92c2.16,3.89,5.23,4,8.84,4,7.82-.08,15.64-.07,23.46,0,12.1.08,17.39,5.39,17.39,17.31,0,10.47-5.85,16.19-16.58,16.21C167.67,440.91,161.67,440.9,155.68,440.9Z"/><path class="cls-3" d="M90.53,382.54c8.58-.94,8.78-1,12,6.34,7.12,16.24,14,32.6,21,48.87,1.06,2.43.56,2.93-2.06,3.25-4.81.59-7.19-1.37-8.76-5.78-3.68-10.37-3.83-10.32-14.83-10.32-4,0-8,.2-12-.06-2.91-.2-4.24,1.15-5.14,3.57-.75,2-1.59,4-2.48,6-3.15,7-3.17,7-12,6.17,3.33-7.87,6.61-15.58,9.87-23.3.78-1.83,1.54-3.67,2.3-5.51a7.34,7.34,0,0,1,9.56-4.31c1.69.61,1.26,1.6.84,2.74-.68,1.83-2.18,3.34-2.16,5.72h17.74C99.78,404.63,95.17,393.63,90.53,382.54Z"/><path class="cls-4" d="M669.4,442.43c-8.65,0-17.31-.09-26,.05-3.23,0-4.8-.64-4.69-4.4.27-9.14.2-18.31,0-27.46-.07-3.34.79-4.66,4.43-4.61,14.64.19,29.29.26,43.93,0,4.69-.09,4.65,2.41,4.53,5.63-.11,3.07.86,6.38-4.41,6.23-10.81-.3-21.63,0-32.45-.15-3.33-.06-4.65.67-4.59,4.33.14,8.58-.06,8.58,8.32,8.58,12.32,0,24.64.21,37-.1,4.75-.13,5,2.17,4.89,5.77s.2,6.49-5,6.26C686.72,442.15,678.05,442.43,669.4,442.43Zm.28-3.14c7.32,0,14.65.14,22-.09,2-.07,5.46,1.88,5.63-2.55s-3.34-2.81-5.37-2.84c-13.15-.14-26.3-.18-39.45,0-3.77.05-5.67-.84-5.19-5a30.45,30.45,0,0,0,0-8c-.81-5.41,1.79-6.41,6.52-6.29,10.14.26,20.3.07,30.46.09,2.24,0,4.44.2,4.28-3.18s-2.69-2.3-4.39-2.31c-12.82-.09-25.64,0-38.45-.1-2.77,0-3.81.74-3.75,3.63.17,7.66.16,15.32,0,23,0,2.86,1,3.75,3.78,3.7C653.7,439.2,661.69,439.29,669.68,439.29Z"/><path class="cls-5" d="M227.26,416.32c-4.66,0-9.32.13-14,0-8.52-.29-14.6-6.36-14.88-14.89-.18-5.32.15-10.66-.12-16-.2-3.86,2.23-3.24,4.52-3.28s4.67-.29,4.49,3.42c-.25,5-.12,10,0,15,.07,4.78,2.16,7,7,7.13,9,.15,18,.09,26.95,0,4.67,0,7-2.72,7.09-7.23.13-5,.22-10,0-15-.16-3.23,1.49-3.53,4-3.35,2.2.17,4.88-.75,4.78,3.14-.14,5.82.24,11.66-.12,17.46A14.11,14.11,0,0,1,243.71,416c-5.46.42-11,.08-16.45.08Z"/><path class="cls-6" d="M572.2,411.63c0-8.17.24-16.34-.09-24.49-.18-4.54.77-6.44,5.88-6.36,4.73.07,6.28,1.24,6.11,6.11-.43,12.64-.05,25.31-.55,37.95-.21,5.18,1.36,6.38,6.34,6.24,13-.37,26,.06,39-.23,4.33-.1,5,1.7,4.85,5.3-.14,3.41.5,6.47-4.86,6.38-17.33-.29-34.65-.2-52,0-3.77,0-4.86-1.19-4.75-4.89C572.37,429,572.21,420.29,572.2,411.63Zm30.28,27.66c7.83,0,15.66,0,23.48,0,2,0,4.6.89,4.58-2.77s-2.69-2.71-4.63-2.72c-13.49-.06-27-.12-40.47,0-3.61,0-4.93-.91-4.85-4.81.31-13.64.22-27.3.26-40.95,0-2,.4-4-2.77-4.13s-2.89,1.88-2.89,3.91c0,15.82.1,31.64-.07,47.46,0,3.48,1.31,4.14,4.38,4.07C587.16,439.18,594.82,439.29,602.48,439.29Z"/><path class="cls-7" d="M458.15,429.49c2,1.65,3.7,1.06,5.26,1.07,11,.06,22,.15,32.95,0,5.2-.08,3.72,3.54,3.83,6.23s.87,5.77-3.84,5.73c-17.8-.15-35.61-.05-53.42-.09-1.58,0-4,.38-4.08-1.78-.2-3.49-1.87-7.53,1.22-10.4,8.28-7.69,16.6-15.35,25.28-22.55,4.3-3.56,10-1.76,14.84-1.13,2.7.35.38,2.63-.66,3.59-6.44,6-13,11.9-19.49,17.83C459.47,428.49,458.83,429,458.15,429.49Zm18.2-20.38c-4.12.21-7.13-1.12-9.37.83-8.14,7.09-16.07,14.43-24,21.73-1.86,1.7-1.47,4.06-1,6.1.53,2.25,2.71,1.47,4.23,1.47q23.46.09,46.94,0c1.84,0,4.08.7,4.14-2.64.07-3.71-2.46-2.84-4.43-2.84-11.65,0-23.31,0-35-.09-2,0-4.91,1.36-5.73-1.35-.73-2.42,2.3-3.3,3.77-4.67C462.29,421.72,468.81,415.93,476.35,409.11Z"/><path class="cls-3" d="M525,430.69h34.91c6.62,0,9.11,3.63,7,10-.59,1.8-1.88,1.62-3.16,1.62-18.29,0-36.57,0-54.86.05-2.59,0-3.33-1-3.55-3.54-.42-4.82.82-8.4,4.77-11.65,7-5.79,13.64-12.13,20.27-18.4,5-4.75,11-2.35,16.59-2.31,2.47,0,.73,2.27-.25,3.18-5.84,5.42-11.75,10.75-17.63,16.13C527.76,427,526.14,427.9,525,430.69Zm18-21.22c-8.13-.86-8.09-.82-13,3.64q-9.93,9.08-20,18c-2.44,2.15-2,4.83-1.55,7.38.29,1.77,2.15,1.18,3.37,1.18,16.14,0,32.28,0,48.41,0,2.6,0,4-.6,4-3.62,0-3.29-2.14-2.74-4.06-2.74-12.31,0-24.63,0-36.94,0-1.38,0-3.33.75-4-1.07-.48-1.41,1.16-2.23,2.07-3.13,1.65-1.63,3.41-3.15,5.14-4.71Z"/><path class="cls-7" d="M371.89,407.07c0-7.16.28-14.34-.09-21.48-.27-5,2.6-4.73,6-4.67s6.2-.57,6.08,4.56c-.31,12.65-.11,25.31-.1,38,0,6.13,1,7.16,7.23,7.48a17,17,0,0,0,3.49,0c4.27-.65,5.64.84,5.79,5.37.17,5.25-1.53,6.74-6.49,6.23-3.62-.37-7.33.05-10.82-1.37-7.95-3.23-11.05-7.92-11.05-16.59Zm3.16.87c0,6.66,0,13.32,0,20,0,1.63-.17,3.26,1.12,4.69,4.95,5.52,11.07,7.6,18.36,6.65a2.3,2.3,0,0,0,2.32-2.59c0-1.77-.52-2.9-2.5-2.88-1,0-2,0-3,0-8.21-.09-10.76-2.61-10.78-10.75q0-17.73,0-35.46c0-1.92.08-3.61-2.73-3.62s-2.82,1.55-2.81,3.54C375.08,394.29,375.05,401.11,375.05,407.94Z"/><path class="cls-5" d="M167.34,391c-6.32,0-12.65.11-19,0-3.32-.08-6,.95-7.39,3.95-.77,1.62-1.65,2.36-3.36,2.08-1.88-.31-4.43,1.06-5.52-.91-.95-1.72.41-3.84,1.28-5.61,2.88-5.86,7.92-8.29,14.18-8.33,13-.08,25.95.11,38.93-.1,3.84-.06,3.71,1.95,3.81,4.66.1,3-.43,4.55-4,4.38C180,390.83,173.66,391,167.34,391Z"/><path class="cls-5" d="M29.39,382.16c8.48,0,17,.2,25.44-.09,3.77-.13,4.38,1.37,4.29,4.63-.08,2.91-.35,4.47-4,4.43-17.13-.2-34.26-.23-51.39,0-4.06.05-3.58-2.09-3.67-4.65-.11-2.85.12-4.58,3.88-4.44C12.41,382.37,20.9,382.16,29.39,382.16Z"/><path class="cls-8" d="M433.36,406.05c0,6.32,0,12.65,0,19-.07,10-5.77,16.24-15.63,17.1-2.32.2-4.67.08-7,.3-4.08.39-5.28-1.23-5.54-5.4-.32-5.41,1.72-6.35,6.53-6.17,9.61.35,10.18-.47,10.18-10,0-11.66.28-23.33-.12-35-.18-5.31,2.7-4.8,6.2-5,4-.22,5.7.78,5.46,5.17C433.08,392.71,433.36,399.38,433.36,406.05Zm-3,1.11c0-6.48,0-13,0-19.44,0-1.72.55-3.72-2.45-3.81-3.17-.1-2.91,1.87-2.91,3.92q0,16.44,0,32.9c0,11-1.69,12.78-12.49,13-.67,0-1.33,0-2,0-1.82-.07-2.18,1-2.17,2.55s0,3.06,2.24,3,4.33,0,6.48-.1c8.57-.54,13.24-5.49,13.29-14.08C430.41,419.13,430.38,413.14,430.38,407.16Z"/><path class="cls-8" d="M536.44,381c8.8,0,17.61.26,26.4-.09,5.1-.21,4.09,3,4.13,5.85s.86,5.87-4.18,5.79q-26.64-.4-53.3,0c-5.53.08-3.91-3.49-4.12-6.33-.22-3-.27-5.45,4.17-5.29C518.5,381.2,527.47,381,536.44,381Zm-.63,8.34h24.41c1.92,0,3.66,0,3.67-2.76s-1.95-2.59-3.76-2.59q-24.15,0-48.31,0c-1.91,0-3.58-.15-3.54,2.71s1.75,2.67,3.63,2.67Z"/><path class="cls-8" d="M669.36,392.42c-8.65,0-17.3-.13-25.94.06-3.26.07-4.75-.54-4.65-4.29.18-7.21,0-7.22,7.31-7.22,16.3,0,32.6.27,48.88-.14,5.36-.14,5.17,2.38,5.47,6.23.36,4.68-1.47,5.57-5.64,5.44C686.32,392.22,677.84,392.42,669.36,392.42Zm.41-3.11h23.94c1.89,0,3.61.14,3.65-2.69s-1.7-2.69-3.59-2.69c-16,0-31.92,0-47.88,0-1.68,0-3.79-.65-3.93,2.35s1.75,3,3.87,3C653.81,389.3,661.79,389.31,669.77,389.31Z"/><path class="cls-3" d="M469.24,381c9,0,17.94.23,26.9-.09,4.63-.16,4.13,2.62,4,5.43s1.23,6.14-3.93,6.08q-26.91-.27-53.8,0c-5.31,0-3.55-3.64-3.73-6.24s-.81-5.37,3.65-5.24C451.3,381.19,460.28,381,469.24,381Zm0,2.87c-8.15,0-16.31,0-24.46,0-2.1,0-3.44.26-3.46,2.92s1.25,2.95,3.39,2.94q24.47-.06,48.93,0c2.3,0,3.74-.27,3.69-3.18s-1.75-2.67-3.62-2.67Z"/><path class="cls-9" d="M133,455h.5c12.37,0,15.53,4.07,12.58,16.19-.67,2.77-2.44,4.42-5.22,4.53-5,.19-10,.3-14.93.09-3.4-.15-5.5-2.12-5.59-5.76,0-.83,0-1.66,0-2.49C120.26,455,120.26,455,133,455Zm.3,16.15c8.51,0,8.42,0,7.92-7.82-.16-2.47-1-3.65-3.53-3.62-3.3.05-6.61,0-9.91,0-1,0-2.23,0-2.33,1.26-.26,3.11-1,6.5.35,9.25,1,2,3.95.6,6,.89A12.33,12.33,0,0,0,133.31,471.12Z"/><path class="cls-6" d="M344.92,465.32c0-2.33,0-4.66,0-7,0-1.92.52-3.23,2.77-3.24s2.57,1.41,2.33,3c-.67,4.39,1.4,5.55,5.35,5a21.27,21.27,0,0,1,5,0c3.11.31,4.69-.63,4.31-4.09-.2-1.78-.15-3.86,2.58-3.9,3.08-.05,2.79,2.23,2.8,4.21,0,4.32,0,8.65,0,13,0,1.75-.32,3.46-2.68,3.36-2.07-.08-3.06-1.29-2.72-3.29.74-4.45-1.79-5-5.25-4.65a22.46,22.46,0,0,1-4.49,0c-3.5-.42-5.44.57-4.87,4.55.26,1.77-.15,3.42-2.5,3.41s-2.66-1.47-2.61-3.36C345,470,344.92,467.65,344.92,465.32Z"/><path class="cls-9" d="M542.38,467.72v-9.17c0-1.69-.17-3.42,2.37-3.44s2.59,1.48,2.57,3.3c0,4.16.07,8.31-.05,12.46,0,1.54.93,3.66-.94,4.51-2.12,1-4.25.17-5.94-1.44-3.12-3-6.2-6-9.32-9-.94-.91-2-1.75-3.9-3.47,0,4.27,0,7.61,0,10.95,0,2-.6,3.24-2.78,3.19s-2.19-1.55-2.18-3.14c0-4.15-.08-8.31.06-12.45.06-1.65-1-3.95,1.42-4.74,2.22-.72,4.17.14,5.84,1.83,2.91,2.95,5.91,5.82,8.91,8.68C539.38,466.68,540.19,467.83,542.38,467.72Z"/><path class="cls-3" d="M282.31,407.14c4.5,0,9,.15,13.49,0,3.75-.16,2.84,2.44,2.81,4.39s1,4.51-2.75,4.46q-14-.21-28,0c-3.74.07-2.83-2.44-2.81-4.4s-1-4.58,2.75-4.45C272.64,407.27,277.48,407.14,282.31,407.14Z"/><path class="cls-10" d="M325.4,459.72a34.43,34.43,0,0,1-5,0c-4.64-.68-5.83,1.24-5.88,5.77-.06,4.76,1.53,6.11,6,5.71a116.33,116.33,0,0,1,12,0c.88,0,2.2-.48,2.49.86a2.6,2.6,0,0,1-1.64,2.81,10.2,10.2,0,0,1-3.81,1c-4.48.14-9,.23-13.46.1-4.09-.12-6.28-2.21-6.5-6.54-.71-13.86-.32-14.39,13.52-14.32,3.13,0,6.34-.61,9.37.58,1.22.48,2.59,1.31,2.51,2.8-.12,2.12-2,1.23-3.11,1.31C329.72,459.82,327.56,459.72,325.4,459.72Z"/><path class="cls-8" d="M410.69,455.09h4c8.23,0,11.73,5.26,8.77,13.05a5.26,5.26,0,0,1-5,3.48c-2.65.18-5.32,0-8,.12-2.43.12-5.48-1.11-6.2,3-.23,1.34-1.92,1-3,.91s-1.53-1-1.8-2c-1.26-4.88,0-6.63,5-6.64,3.32,0,6.65-.14,10,0,2.77.15,4.25-.37,4.24-3.71,0-3.5-1.91-3.62-4.46-3.58-4,.08-8,0-12,0-1.38,0-2.74-.11-2.83-2s1-2.63,2.77-2.63C405,455.11,407.86,455.1,410.69,455.09Z"/><path class="cls-9" d="M168.39,475.69c-12.92,0-12.92,0-12.92-12.92,0-1.66,0-3.32,0-5,0-1.87.89-2.72,2.77-2.65s2.16,1.18,2.15,2.68c0,3.15.13,6.32,0,9.47-.15,2.85,1.07,3.63,3.81,3.74,12.1.47,12.07.55,12.32-11.47,0-1.75-1-4.35,2.34-4.42s2.5,2.42,2.54,4.27c.07,3.16.1,6.32,0,9.47-.17,5.26-1.66,6.68-7,6.8C172.38,475.73,170.38,475.69,168.39,475.69Z"/><path class="cls-8" d="M210.4,470.91l3.69,3.95c-5.29,2.08-6.13,1.69-15.56-8.91,2.59,0,4.65,0,6.71,0,2.24,0,4.85.66,4.75-3.18s-2.84-2.95-5-3c-3.65-.11-7.31,0-11,0-1.43,0-3.17.36-3.35-1.91s1.4-2.69,3.22-2.7c4.31,0,8.63,0,13,0,3.63-.06,7.13,0,8.17,4.55C216.32,465.23,215.1,468.3,210.4,470.91Z"/><path class="cls-10" d="M464.3,466c3.19,0,5.93-.05,8.67,0,2.17.05,2.93-1,2.93-3s-.85-3.14-2.92-3.16c-4,0-8,.06-12-.07-1.74-.06-4.48,1-4.34-2.36s2.82-2.12,4.58-2.18c3.65-.14,7.31,0,11-.07s7.17-.12,8.57,4.14A9.71,9.71,0,0,1,476.35,471l3.36,3.69C474.27,476.82,473.11,476.17,464.3,466Z"/><path class="cls-8" d="M612.61,475.51c-7.84,1.74-10.15-5.33-14.61-9.56,2.72,0,5.45-.07,8.18,0,2.21.07,2.83-1.18,3-3.07.19-2.14-.85-3.11-2.85-3.13-4.48,0-9,0-13.44-.06-1.44,0-3.24.33-3.24-2s1.42-2.69,3.33-2.66c4.15.05,8.3,0,12.45,0,3.53,0,7.2-.28,8.49,4.16,1.52,5.2,0,9.08-4.36,11.61C610,472.73,613,473,612.61,475.51Z"/><path class="cls-10" d="M431.17,475.69c-2.6.11-2.94-1.2-1.74-3.08,3.41-5.31,6.78-10.65,10.43-15.8,2.31-3.27,4.93-2.16,6.81.55,3.2,4.63,6.24,9.38,9.13,14.21.61,1,2.65,2.55.78,3.72a3.65,3.65,0,0,1-5.19-1.4c-1.75-2.81-3.43-5.67-5.23-8.45-3-4.65-3.08-4.65-6.25.14-1.74,2.64-3.34,5.36-5.05,8A3.85,3.85,0,0,1,431.17,475.69Z"/><path class="cls-10" d="M256,455.1c3.32,0,6.65,0,10,0,1.55,0,2.57.38,2.67,2.13.12,2-1,2.38-2.78,2.54-7.49.72-7.49.77-7.49,8.2,0,1.33,0,2.66,0,4,0,1.75.5,3.89-2.48,3.76-2.8-.13-2.43-2.21-2.47-4a66.46,66.46,0,0,1,0-7.47c.32-3.34-.65-5.09-4.31-4.54a18.65,18.65,0,0,1-3,0c-1.65,0-3-.38-2.85-2.5.1-1.85,1.3-2.09,2.73-2.09Z"/><path class="cls-10" d="M501.93,455.1c3,0,6,0,9,0,1.71,0,3.47-.08,3.36,2.47-.09,2.18-1.6,2.06-3.16,2.16-6.93.46-6.92.48-6.93,7.36,0,2.16.05,4.33-.07,6.49-.1,1.73-1.41,2.11-2.85,2a2,2,0,0,1-2-2.27c0-3.16-.2-6.34.05-9.49s-.88-4.28-4.17-4.29c-2,0-5.95,2-6-2,0-4.29,4-2,6.29-2.39A38.88,38.88,0,0,1,501.93,455.1Z"/><path class="cls-10" d="M112.76,455.66c-2.45,2.83-4.26,5.16-6.32,7.25-2.84,2.87-5.63,5.62-4.74,10.25a1.9,1.9,0,0,1-2.23,2.48c-1.39-.11-3-.58-2.68-2.22,1.46-6.8-4.37-9.42-7.48-13.6-1-1.32-3.62-2.68-1.83-4.28,1.54-1.37,3.91-.48,5.65,1.4,6.07,6.58,6.25,6.62,12.08.22C107.26,454.91,109.32,454.86,112.76,455.66Z"/><path class="cls-5" d="M223.34,432.2a17.43,17.43,0,0,0,0-3c-.69-3.85,1.05-4.64,4.64-4.64s4.72,1.07,4.32,4.5a57.77,57.77,0,0,0-.05,6.45c0,5.3-1.56,6.4-6.91,5.39-1.86-.35-2-1.37-2-2.77C223.35,436.17,223.34,434.18,223.34,432.2Z"/><path class="cls-11" d="M288.35,455.07c3.14,0,6.28,0,9.42,0,1.59,0,2.49.59,2.5,2.3s-.91,2.37-2.47,2.37H279.45c-1.75,0-2.86-.73-2.79-2.65s1.31-2.05,2.76-2C282.4,455.08,285.37,455.07,288.35,455.07Z"/><path class="cls-11" d="M568.46,459.76h-9c-1.72,0-3-.58-2.92-2.54s1.36-2.12,2.75-2.13c6.13,0,12.27,0,18.41,0,1.53,0,2.54.51,2.56,2.26,0,2-1.16,2.47-2.89,2.44C574.43,459.72,571.45,459.76,568.46,459.76Z"/><path class="cls-8" d="M288.47,475.71h-9c-1.76,0-2.88-.69-2.8-2.63.07-1.75,1.18-2.14,2.7-2.13q9,0,17.94,0c1.65,0,3,.3,3,2.37s-1.19,2.44-2.91,2.41C294.45,475.68,291.46,475.72,288.47,475.71Z"/><path class="cls-10" d="M568.73,475.7c-3,0-6,0-9,0-1.55,0-3.09-.35-3.14-2.38s1.27-2.37,3-2.36c5.8.05,11.61,0,17.42,0,1.84,0,3.31.26,3.28,2.63s-1.62,2.12-3.12,2.13C574.37,475.72,571.55,475.71,568.73,475.7Z"/><path class="cls-11" d="M288.36,467.75c-3,0-6,0-9,0-1.8,0-2.85-.82-2.72-2.73s1.44-2,2.86-1.95q8.73,0,17.46,0c1.63,0,3.16.17,3,2.3-.15,1.8-1.33,2.48-3.12,2.43C294,467.7,291.19,467.76,288.36,467.75Z"/><path class="cls-11" d="M568.76,463.06c2.81,0,5.63,0,8.44,0,1.33,0,2.75-.1,2.77,1.89s-.86,2.78-2.68,2.78H559.41c-1.74,0-2.89-.7-2.81-2.62.09-2.16,1.7-2.07,3.22-2.07Z"/></g></g></svg>